# xmcd CD database file
#
# Track frame offsets:
#	150
#	23425
#	41267
#	64467
#
# Disc length: 1094 seconds
#
# Revision: 1
# Processed by: cddbd v1.5.1PL0 Copyright (c) Steve Scherf et al.
# Submitted via: CDex 1.51
#
DISCID=28044404
DTITLE=上田まり - 少し届かない秘密
DYEAR=2000
DGENRE=JPop
TTITLE0=少し届かない秘密
TTITLE1=rainy dance
TTITLE2=少し届かない秘密 (orijinal karaoke)
TTITLE3=rainy dance (orijinal karaoke)
EXTD=YEAR: 2000
EXTT0=
EXTT1=
EXTT2=
EXTT3=
PLAYORDER=
